PathFileType	4	(X/Y/Z)	C:\Users\Basilio\Documents\Thesis Gigler\squatting_fais\c3dfiles\076\SLS_front_pre4\markers_experimental.trc
DataRate	CameraRate	NumFrames	NumMarkers	Units	OrigDataRate	OrigDataStartFrame	OrigNumFrames
200.000000	200.000000	4	61	mm	200.000000	405	1621
Frame#	Time	FHD			LBHD			RBHD			C7			T10			CLAV			LSHO			LUUPA			LMUPA			LDUPA			LLEP			LMEP			LRAD			LUL			LRFIN			RSHO			RUPA1			RMUPA			RDUPA			RLEP			RMEP			RRAD			RUL			RUFIN			RASI			USACR			LSACR			RSACR			LTHI1			LTHI2			LTHI3			LTHI4			LLFC			LMFC			LTIB1			LTIB2			LTIB3			LTIB4			LLMAL			LMMAL			LHEE			LMT1			LMT2			LMT5			RTHI			RTHI2			RTHI3			RTHI4			RLFC			RMFC			RTIB1			RTIB2			RTIB3			RTIB4			RLMAL			RMMAL			RHEE			RMT1			RMT2			RMT5			LASI			
		X1	Y1	Z1	X2	Y2	Z2	X3	Y3	Z3	X4	Y4	Z4	X5	Y5	Z5	X6	Y6	Z6	X7	Y7	Z7	X8	Y8	Z8	X9	Y9	Z9	X10	Y10	Z10	X11	Y11	Z11	X12	Y12	Z12	X13	Y13	Z13	X14	Y14	Z14	X15	Y15	Z15	X16	Y16	Z16	X17	Y17	Z17	X18	Y18	Z18	X19	Y19	Z19	X20	Y20	Z20	X21	Y21	Z21	X22	Y22	Z22	X23	Y23	Z23	X24	Y24	Z24	X25	Y25	Z25	X26	Y26	Z26	X27	Y27	Z27	X28	Y28	Z28	X29	Y29	Z29	X30	Y30	Z30	X31	Y31	Z31	X32	Y32	Z32	X33	Y33	Z33	X34	Y34	Z34	X35	Y35	Z35	X36	Y36	Z36	X37	Y37	Z37	X38	Y38	Z38	X39	Y39	Z39	X40	Y40	Z40	X41	Y41	Z41	X42	Y42	Z42	X43	Y43	Z43	X44	Y44	Z44	X45	Y45	Z45	X46	Y46	Z46	X47	Y47	Z47	X48	Y48	Z48	X49	Y49	Z49	X50	Y50	Z50	X51	Y51	Z51	X52	Y52	Z52	X53	Y53	Z53	X54	Y54	Z54	X55	Y55	Z55	X56	Y56	Z56	X57	Y57	Z57	X58	Y58	Z58	X59	Y59	Z59	X60	Y60	Z60	X61	Y61	Z61	

406	2.025	-271.6046447753907	1643.058837890625	-993.7703247070315	-410.2111816406251	1567.596923828125	-1086.700317382813	-392.7684020996095	1571.665161132813	-935.3977661132815	-449.4987182617189	1442.98974609375	-1010.330383300781	-467.1528930664064	1126.686767578125	-1031.839965820313	-315.7656860351563	1374.1796875	-1017.64453125	-377.1292114257813	1401.2021484375	-1178.950317382813	-238.167465209961	1329.409912109375	-1271.300048828125	-199.2521362304688	1344.999877929688	-1243.70556640625	-175.705551147461	1314.132690429688	-1291.233154296875	-130.1073760986328	1287.959228515625	-1306.546997070313	-124.3714981079102	1229.259155273438	-1252.181396484375	121.6502685546875	1285.155639648438	-1281.533813476563	110.5928344726563	1282.158203125	-1346.285522460938	204.2620391845704	1297.06201171875	-1297.30615234375	-365.3378295898438	1384.540405273438	-859.0795898437502	-232.2035827636719	1291.340942382813	-778.924987792969	-195.991683959961	1321.816772460938	-793.391296386719	-164.5911560058594	1272.761840820313	-774.1485595703127	-98.77445220947268	1266.947631835938	-775.555114746094	-102.0769805908203	1222.256958007813	-838.3772583007815	144.149169921875	1246.7978515625	-830.8428955078127	135.72998046875	1239.4296875	-765.1702880859376	218.5848693847657	1256.255493164063	-817.0648193359377	-307.1517639160157	958.356628417969	-904.7349853515627	-465.4107971191407	1015.138916015625	-1027.297241210938	-470.0640258789064	985.612487792969	-1054.376098632813	-476.3362426757814	985.687683105469	-998.3130493164065	-355.2651672363282	787.189636230469	-1182.60205078125	-324.1609802246094	709.6501464843751	-1174.682739257813	-275.3648681640626	714.5119018554689	-1163.48828125	-351.7667541503907	657.0950927734376	-1157.58642578125	-340.2037963867188	498.6173400878907	-1122.231567382813	-314.7353820800782	503.4539184570314	-1005.630310058594	-311.4024963378907	359.1006164550782	-1038.84033203125	-331.0384826660157	299.9201049804688	-1102.137084960938	-304.6314086914063	306.2809448242188	-1063.598022460938	-323.6658325195313	233.4136352539063	-1025.605224609375	-382.3033752441407	106.6595840454102	-1071.101806640625	-357.9260253906251	121.3705062866211	-991.3850097656252	-440.8640441894532	95.39400482177736	-1024.435424804688	-238.7060852050782	53.5314292907715	-1004.899230957031	-233.2983093261719	49.27778244018556	-1043.55126953125	-257.4850158691407	43.66529846191407	-1094.21826171875	-313.9663085937501	711.9543457031251	-827.958190917969	-257.9690246582032	674.0109252929689	-827.9036254882815	-228.3067321777344	687.1786499023439	-837.8439941406252	-255.5718994140626	591.3273315429689	-834.406433105469	-241.4044342041016	534.4170532226564	-837.289978027344	-213.3513336181641	528.4979858398439	-951.003356933594	-193.3640747070313	401.9862060546876	-848.247009277344	-261.9409179687501	321.2224121093751	-822.9024658203127	-215.8534698486329	318.9591064453126	-831.9280395507815	-200.2640380859376	272.7001342773438	-863.941833496094	-257.5808715820313	129.6990203857422	-828.1862792968752	-233.7075347900391	144.6243896484375	-910.828308105469	-313.3390808105469	104.9434280395508	-872.7191162109377	-111.6845245361328	85.18144989013673	-894.959167480469	-102.1485977172852	92.3079299926758	-850.2445068359377	-130.3720703125	72.78686523437501	-797.462585449219	-287.2481384277344	949.2280883789065	-1120.947143554688	
407	2.03	-271.7389221191407	1643.091796875	-994.1834106445315	-410.4170532226564	1567.548095703125	-1087.053100585938	-392.9102172851564	1571.755615234375	-936.090515136719	-449.6504516601564	1442.978881835938	-1010.825378417969	-467.1129455566407	1126.78271484375	-1032.244873046875	-315.7993164062501	1374.174438476563	-1017.994018554688	-377.0846557617188	1401.193481445313	-1179.313110351563	-238.1035766601563	1329.710571289063	-1271.598388671875	-199.1601562500001	1345.220947265625	-1243.962768554688	-175.3392028808594	1314.403198242188	-1291.431518554688	-129.9612274169922	1288.502807617188	-1306.940795898438	-124.2118225097657	1229.59716796875	-1252.499145507813	121.8601608276367	1285.793334960938	-1281.740112304688	110.997802734375	1282.838623046875	-1346.494018554688	204.4027252197266	1297.616577148438	-1297.43896484375	-365.4085693359376	1384.686767578125	-859.5283813476565	-232.2581939697266	1291.8154296875	-779.4067993164065	-196.1404418945313	1322.224487304688	-793.8101196289065	-164.6380157470703	1273.203247070313	-774.529235839844	-98.7548522949219	1267.769775390625	-775.9805908203127	-101.9791030883789	1222.888916015625	-838.6238403320315	144.1958770751953	1247.806518554688	-831.0836181640627	135.7314910888672	1240.335571289063	-765.3090820312501	218.7127380371094	1256.990844726563	-817.1331176757815	-307.2723083496094	958.3767089843752	-904.983337402344	-465.2554016113282	1014.815795898438	-1027.759399414063	-469.9609985351564	985.380065917969	-1054.7607421875	-476.372283935547	986.2205200195315	-998.456726074219	-355.5003356933594	787.2606201171877	-1182.853393554688	-324.6360473632813	709.5956420898439	-1174.86376953125	-275.8254394531251	714.6084594726564	-1164.044311523438	-352.9572143554688	657.3414916992189	-1157.940551757813	-340.5720520019532	498.6928100585939	-1122.466674804688	-314.9300231933594	503.3491210937501	-1005.887390136719	-311.7525024414063	359.0202941894532	-1039.13330078125	-331.4658508300782	299.8770141601563	-1102.401733398438	-304.8517150878907	306.3206481933594	-1063.882934570313	-323.7592468261719	233.3915252685547	-1025.810424804688	-382.3048400878907	106.6624603271485	-1071.159301757813	-358.1454467773438	121.235580444336	-991.0899658203127	-440.8743896484376	95.37957763671876	-1024.42724609375	-238.7048950195313	53.51973724365236	-1004.900817871094	-233.2348022460938	49.22158432006837	-1043.538696289063	-257.4193420410157	43.60570526123048	-1094.222290039063	-314.3420104980469	711.8740234375001	-828.4614868164065	-258.3915100097657	673.9052734375001	-828.565856933594	-228.7154388427735	687.0440063476564	-838.4334716796877	-256.2083435058594	591.2797241210939	-835.1333007812502	-241.9337768554688	534.0771484375001	-838.1396484375002	-214.1726226806641	528.3574829101564	-951.944763183594	-192.4635467529297	402.213348388672	-849.3413085937502	-260.0487365722657	320.6759033203126	-823.5479736328127	-214.0814819335938	319.0243225097657	-832.6758422851565	-198.0731506347657	272.7243957519532	-864.7658691406252	-253.5281829833985	128.9688110351563	-828.7320556640627	-230.6029663085938	144.3288879394532	-911.466003417969	-309.3298950195313	103.7006225585938	-872.8731689453127	-107.270980834961	86.15246582031251	-896.2380371093752	-97.78562164306643	93.38988494873048	-851.637390136719	-125.4571151733399	73.26924133300783	-798.8803710937502	-287.5469360351563	949.250671386719	-1121.3330078125	
408	2.035	-271.9322509765626	1643.258422851563	-994.506774902344	-410.3290405273439	1567.614624023438	-1087.4560546875	-392.9662170410157	1571.744506835938	-936.2808227539065	-449.6915283203126	1442.98681640625	-1011.266235351563	-467.1994628906251	1126.835205078125	-1032.538940429688	-315.8878479003907	1374.251586914063	-1018.355651855469	-376.9363403320313	1401.216796875	-1179.684814453125	-238.104965209961	1330.1123046875	-1271.921997070313	-198.9995117187501	1345.486938476563	-1244.2294921875	-175.1381378173828	1314.681030273438	-1291.606689453125	-129.7647399902344	1288.94873046875	-1307.1533203125	-124.0702590942383	1229.980712890625	-1252.976318359375	122.0109100341797	1286.63232421875	-1281.974975585938	111.4009170532227	1283.50439453125	-1346.727172851563	204.7399139404297	1298.254028320313	-1297.683349609375	-365.5258483886719	1384.795288085938	-859.9536743164065	-232.3347473144532	1292.106689453125	-779.997253417969	-196.1370544433594	1322.798095703125	-794.1549072265627	-164.5907135009766	1273.728637695313	-774.8171386718752	-98.71390533447268	1268.397705078125	-776.3377685546877	-101.8564529418946	1223.498413085938	-839.0337524414065	144.3231048583985	1248.753051757813	-831.2827758789065	135.7448425292969	1241.188720703125	-765.5582885742189	218.8576965332032	1258.075439453125	-817.227966308594	-307.3365173339844	958.4558105468752	-905.1907958984377	-465.5471496582032	1015.199035644531	-1028.033569335938	-470.3204040527345	985.6279907226565	-1054.996948242188	-476.5226135253907	985.8173828125002	-998.8719482421877	-356.7627868652344	787.5048828125002	-1183.262084960938	-324.9868774414063	709.5584106445314	-1175.2138671875	-276.2606811523438	714.6553955078126	-1164.56982421875	-353.3345947265626	657.3157958984376	-1158.188110351563	-341.0653991699219	498.699920654297	-1122.659301757813	-315.0061035156251	503.3427734375001	-1006.162231445313	-311.8464050292969	359.0784912109376	-1039.290283203125	-331.7533874511719	299.8756103515626	-1102.577880859375	-304.9317016601563	306.2423706054688	-1064.000244140625	-323.7229919433594	233.4920349121094	-1025.910034179688	-382.2366333007813	106.6025695800782	-1071.18212890625	-358.1070251464844	121.2417221069336	-991.1487426757815	-440.8509826660157	95.38530731201173	-1024.440185546875	-238.1006774902344	54.06320571899415	-1004.8525390625	-233.3010711669922	49.29187393188478	-1043.538696289063	-257.4905090332032	43.63697814941407	-1094.238525390625	-314.8225708007813	711.7596435546876	-829.0113525390627	-258.9044494628907	673.7232055664064	-829.1055908203127	-229.2200012207032	686.8245239257814	-839.1614990234377	-256.8034973144532	590.9681396484376	-836.248474121094	-242.4216766357422	533.8497314453126	-839.143493652344	-215.0942687988282	528.1820678710939	-953.1132812500002	-191.7502593994141	402.3973388671876	-850.3008422851565	-258.3071899414063	320.2111206054688	-824.0471801757815	-212.1905517578126	319.0718688964844	-833.6766357421877	-195.8517608642579	272.9211730957032	-865.6682128906252	-249.2952270507813	128.3211975097657	-829.0433349609377	-227.9681701660157	143.9886016845703	-912.3087158203127	-305.2053833007813	102.5811462402344	-872.887634277344	-103.1968841552735	87.23553466796876	-897.6284179687502	-93.56431579589845	94.27886962890626	-853.0954589843752	-120.5330505371094	73.82569122314455	-800.242370605469	-287.7335205078126	949.2819824218752	-1121.646728515625	
409	2.04	-272.0115661621094	1643.351318359375	-994.892761230469	-410.5032348632814	1567.5458984375	-1087.776489257813	-393.1129760742189	1571.798095703125	-936.731384277344	-449.7053833007814	1443.065185546875	-1011.722839355469	-467.2197875976564	1126.878784179688	-1032.944946289063	-315.8898315429688	1374.278686523438	-1018.619689941406	-376.7077636718751	1400.953979492188	-1179.593383789063	-237.9198455810547	1330.345581054688	-1272.22900390625	-198.8673706054688	1345.69775390625	-1244.4482421875	-174.9354705810547	1314.971435546875	-1291.742065429688	-129.6081237792969	1289.244873046875	-1307.346313476563	-123.5194549560547	1230.329467773438	-1252.958251953125	122.3221893310547	1286.925659179688	-1282.2353515625	111.5796279907227	1284.11279296875	-1346.98828125	204.9890899658204	1298.985473632813	-1297.73828125	-365.6007690429688	1384.872436523438	-860.3321533203127	-232.3553924560547	1292.671020507813	-780.308532714844	-196.2159576416016	1323.36328125	-794.463073730469	-164.6340637207032	1274.216674804688	-775.1903076171877	-98.74870300292972	1269.056396484375	-776.7366333007815	-101.9259490966797	1224.231567382813	-839.4387207031252	144.4219207763672	1249.545776367188	-831.4284667968752	135.6618041992188	1242.179931640625	-765.7664794921876	218.9298858642579	1258.832153320313	-817.3341064453127	-307.4609375000001	958.4824218750002	-905.5034790039065	-465.6289367675782	1015.259948730469	-1028.332153320313	-470.5423583984376	985.5194091796877	-1055.245239257813	-476.7081298828126	985.9329833984377	-999.1192626953127	-356.9656982421876	787.4746093750002	-1183.504760742188	-325.3370361328126	709.6046142578126	-1175.68505859375	-276.7045288085938	714.3934326171876	-1164.773193359375	-353.0691528320313	657.1118774414064	-1158.237915039063	-341.4457702636719	498.7518920898439	-1122.78369140625	-315.1565551757813	503.2872619628907	-1006.460815429688	-311.9276733398438	359.2665405273438	-1039.390869140625	-331.9502563476563	299.9043273925782	-1102.6845703125	-305.1015014648438	306.2275390625001	-1064.024780273438	-323.8181457519532	233.5815734863282	-1025.987060546875	-382.2648925781251	106.6199264526367	-1071.179809570313	-358.1094360351563	121.276840209961	-991.1250000000002	-440.8612365722657	95.40541076660158	-1024.414306640625	-238.7803344726563	53.50626754760744	-1004.933349609375	-233.318588256836	49.23506164550783	-1043.581909179688	-257.4127502441407	43.65489959716798	-1094.232788085938	-315.3348999023438	711.6317749023439	-829.6190185546877	-259.4527282714844	673.4517211914064	-829.8914184570315	-229.8074188232422	686.6132812500001	-839.830505371094	-257.4269104003907	590.7841796875001	-837.1392211914065	-242.8706359863282	533.6472778320314	-839.9682617187502	-216.1499023437501	528.0968627929689	-954.0955200195315	-191.0090942382813	402.5232238769532	-851.489196777344	-256.3754882812501	319.7528381347657	-824.7459106445315	-210.4732971191407	318.9866943359376	-834.4741210937502	-193.6126708984376	272.9733886718751	-866.2656860351565	-245.1461486816407	127.6444625854492	-829.4538574218752	-223.7832489013672	143.5625762939453	-912.4055175781252	-301.2484436035157	101.6426086425782	-872.8784790039065	-99.24620056152347	88.40480041503908	-898.996032714844	-89.3773651123047	95.51601409912111	-854.438903808594	-115.6943359375	74.26805877685548	-801.5756835937502	-287.7904968261719	949.239440917969	-1121.8740234375	
